<mxfile host="app.diagrams.net" agent="Mozilla/5.0 (Windows NT 10.0; Win64; x64) AppleWebKit/537.36 (KHTML, like Gecko) Chrome/139.0.0.0 Safari/537.36" version="27.0.6">
  <diagram name="Page-1" id="eJ5uw_zrAGtuqEUsYYr_">
    <mxGraphModel dx="1511" dy="511" grid="1" gridSize="10" guides="1" tooltips="1" connect="1" arrows="1" fold="1" page="1" pageScale="1" pageWidth="850" pageHeight="1100" background="#FFCCCC" math="0" shadow="0">
      <root>
        <mxCell id="0" />
        <mxCell id="1" parent="0" />
        <mxCell id="eAUDB-SRGVo6K7p-f1jW-1" value="User" style="swimlane;fontStyle=0;childLayout=stackLayout;horizontal=1;startSize=26;fillColor=none;horizontalStack=0;resizeParent=1;resizeParentMax=0;resizeLast=0;collapsible=1;marginBottom=0;whiteSpace=wrap;html=1;labelBackgroundColor=none;" parent="1" vertex="1">
          <mxGeometry x="70" y="34" width="140" height="156" as="geometry" />
        </mxCell>
        <mxCell id="eAUDB-SRGVo6K7p-f1jW-3" value="&lt;b&gt;id (pk)&lt;/b&gt;" style="text;strokeColor=none;fillColor=none;align=left;verticalAlign=top;spacingLeft=4;spacingRight=4;overflow=hidden;rotatable=0;points=[[0,0.5],[1,0.5]];portConstraint=eastwest;whiteSpace=wrap;html=1;labelBackgroundColor=none;" parent="eAUDB-SRGVo6K7p-f1jW-1" vertex="1">
          <mxGeometry y="26" width="140" height="26" as="geometry" />
        </mxCell>
        <mxCell id="eAUDB-SRGVo6K7p-f1jW-5" value="name" style="text;strokeColor=none;fillColor=none;align=left;verticalAlign=top;spacingLeft=4;spacingRight=4;overflow=hidden;rotatable=0;points=[[0,0.5],[1,0.5]];portConstraint=eastwest;whiteSpace=wrap;html=1;labelBackgroundColor=none;" parent="eAUDB-SRGVo6K7p-f1jW-1" vertex="1">
          <mxGeometry y="52" width="140" height="26" as="geometry" />
        </mxCell>
        <mxCell id="eAUDB-SRGVo6K7p-f1jW-6" value="email" style="text;strokeColor=none;fillColor=none;align=left;verticalAlign=top;spacingLeft=4;spacingRight=4;overflow=hidden;rotatable=0;points=[[0,0.5],[1,0.5]];portConstraint=eastwest;whiteSpace=wrap;html=1;labelBackgroundColor=none;" parent="eAUDB-SRGVo6K7p-f1jW-1" vertex="1">
          <mxGeometry y="78" width="140" height="26" as="geometry" />
        </mxCell>
        <mxCell id="eAUDB-SRGVo6K7p-f1jW-32" value="role" style="text;strokeColor=none;fillColor=none;align=left;verticalAlign=top;spacingLeft=4;spacingRight=4;overflow=hidden;rotatable=0;points=[[0,0.5],[1,0.5]];portConstraint=eastwest;whiteSpace=wrap;html=1;labelBackgroundColor=none;" parent="eAUDB-SRGVo6K7p-f1jW-1" vertex="1">
          <mxGeometry y="104" width="140" height="26" as="geometry" />
        </mxCell>
        <mxCell id="eAUDB-SRGVo6K7p-f1jW-4" value="created at" style="text;strokeColor=none;fillColor=none;align=left;verticalAlign=top;spacingLeft=4;spacingRight=4;overflow=hidden;rotatable=0;points=[[0,0.5],[1,0.5]];portConstraint=eastwest;whiteSpace=wrap;html=1;labelBackgroundColor=none;" parent="eAUDB-SRGVo6K7p-f1jW-1" vertex="1">
          <mxGeometry y="130" width="140" height="26" as="geometry" />
        </mxCell>
        <mxCell id="eAUDB-SRGVo6K7p-f1jW-7" value="Book" style="swimlane;fontStyle=0;childLayout=stackLayout;horizontal=1;startSize=26;fillColor=none;horizontalStack=0;resizeParent=1;resizeParentMax=0;resizeLast=0;collapsible=1;marginBottom=0;whiteSpace=wrap;html=1;labelBackgroundColor=none;" parent="1" vertex="1">
          <mxGeometry x="470" y="34" width="140" height="182" as="geometry" />
        </mxCell>
        <mxCell id="eAUDB-SRGVo6K7p-f1jW-8" value="&lt;li&gt;&lt;b&gt;id (pk)&lt;/b&gt;&lt;/li&gt;" style="text;strokeColor=none;fillColor=none;align=left;verticalAlign=top;spacingLeft=4;spacingRight=4;overflow=hidden;rotatable=0;points=[[0,0.5],[1,0.5]];portConstraint=eastwest;whiteSpace=wrap;html=1;labelBackgroundColor=none;" parent="eAUDB-SRGVo6K7p-f1jW-7" vertex="1">
          <mxGeometry y="26" width="140" height="26" as="geometry" />
        </mxCell>
        <mxCell id="eAUDB-SRGVo6K7p-f1jW-34" value="&lt;li&gt;title&amp;nbsp;&lt;/li&gt;" style="text;strokeColor=none;fillColor=none;align=left;verticalAlign=top;spacingLeft=4;spacingRight=4;overflow=hidden;rotatable=0;points=[[0,0.5],[1,0.5]];portConstraint=eastwest;whiteSpace=wrap;html=1;labelBackgroundColor=none;" parent="eAUDB-SRGVo6K7p-f1jW-7" vertex="1">
          <mxGeometry y="52" width="140" height="26" as="geometry" />
        </mxCell>
        <mxCell id="eAUDB-SRGVo6K7p-f1jW-9" value="&lt;li&gt;&lt;span style=&quot;background-color: transparent; color: light-dark(rgb(0, 0, 0), rgb(255, 255, 255));&quot;&gt;author&lt;/span&gt;&lt;/li&gt;" style="text;strokeColor=none;fillColor=none;align=left;verticalAlign=top;spacingLeft=4;spacingRight=4;overflow=hidden;rotatable=0;points=[[0,0.5],[1,0.5]];portConstraint=eastwest;whiteSpace=wrap;html=1;labelBackgroundColor=none;" parent="eAUDB-SRGVo6K7p-f1jW-7" vertex="1">
          <mxGeometry y="78" width="140" height="26" as="geometry" />
        </mxCell>
        <mxCell id="eAUDB-SRGVo6K7p-f1jW-10" value="&lt;li&gt;&lt;span style=&quot;background-color: transparent; color: light-dark(rgb(0, 0, 0), rgb(255, 255, 255));&quot;&gt;genre&lt;/span&gt;&lt;/li&gt;" style="text;strokeColor=none;fillColor=none;align=left;verticalAlign=top;spacingLeft=4;spacingRight=4;overflow=hidden;rotatable=0;points=[[0,0.5],[1,0.5]];portConstraint=eastwest;whiteSpace=wrap;html=1;labelBackgroundColor=none;" parent="eAUDB-SRGVo6K7p-f1jW-7" vertex="1">
          <mxGeometry y="104" width="140" height="26" as="geometry" />
        </mxCell>
        <mxCell id="eAUDB-SRGVo6K7p-f1jW-13" value="&lt;li&gt;&lt;span style=&quot;background-color: transparent; color: light-dark(rgb(0, 0, 0), rgb(255, 255, 255));&quot;&gt;is_available&lt;/span&gt;&lt;/li&gt;" style="text;strokeColor=none;fillColor=none;align=left;verticalAlign=top;spacingLeft=4;spacingRight=4;overflow=hidden;rotatable=0;points=[[0,0.5],[1,0.5]];portConstraint=eastwest;whiteSpace=wrap;html=1;labelBackgroundColor=none;" parent="eAUDB-SRGVo6K7p-f1jW-7" vertex="1">
          <mxGeometry y="130" width="140" height="26" as="geometry" />
        </mxCell>
        <mxCell id="eAUDB-SRGVo6K7p-f1jW-11" value="&lt;li&gt;&lt;span style=&quot;background-color: transparent; color: light-dark(rgb(0, 0, 0), rgb(255, 255, 255));&quot;&gt;is_created_at&amp;nbsp;&lt;/span&gt;&lt;/li&gt;" style="text;strokeColor=none;fillColor=none;align=left;verticalAlign=top;spacingLeft=4;spacingRight=4;overflow=hidden;rotatable=0;points=[[0,0.5],[1,0.5]];portConstraint=eastwest;whiteSpace=wrap;html=1;labelBackgroundColor=none;" parent="eAUDB-SRGVo6K7p-f1jW-7" vertex="1">
          <mxGeometry y="156" width="140" height="26" as="geometry" />
        </mxCell>
        <mxCell id="eAUDB-SRGVo6K7p-f1jW-15" value="Transaction" style="swimlane;fontStyle=0;childLayout=stackLayout;horizontal=1;startSize=26;fillColor=none;horizontalStack=0;resizeParent=1;resizeParentMax=0;resizeLast=0;collapsible=1;marginBottom=0;whiteSpace=wrap;html=1;labelBackgroundColor=none;" parent="1" vertex="1">
          <mxGeometry x="320" y="300" width="170" height="182" as="geometry">
            <mxRectangle x="320" y="300" width="100" height="30" as="alternateBounds" />
          </mxGeometry>
        </mxCell>
        <mxCell id="eAUDB-SRGVo6K7p-f1jW-16" value="&lt;li&gt;&lt;b&gt;id (pk)&lt;/b&gt;&lt;/li&gt;" style="text;strokeColor=none;fillColor=none;align=left;verticalAlign=top;spacingLeft=4;spacingRight=4;overflow=hidden;rotatable=0;points=[[0,0.5],[1,0.5]];portConstraint=eastwest;whiteSpace=wrap;html=1;labelBackgroundColor=none;" parent="eAUDB-SRGVo6K7p-f1jW-15" vertex="1">
          <mxGeometry y="26" width="170" height="26" as="geometry" />
        </mxCell>
        <mxCell id="eAUDB-SRGVo6K7p-f1jW-17" value="&lt;li&gt;&lt;font style=&quot;font-size: 10px; color: rgb(255, 51, 51);&quot;&gt;&lt;b&gt;&lt;span style=&quot;background-color: transparent;&quot;&gt;user_id&amp;nbsp;&amp;nbsp;&lt;/span&gt;(FK -&amp;gt; Users.id)&lt;/b&gt;&lt;/font&gt;&lt;/li&gt;" style="text;strokeColor=none;fillColor=none;align=left;verticalAlign=top;spacingLeft=4;spacingRight=4;overflow=hidden;rotatable=0;points=[[0,0.5],[1,0.5]];portConstraint=eastwest;whiteSpace=wrap;html=1;labelBackgroundColor=none;" parent="eAUDB-SRGVo6K7p-f1jW-15" vertex="1">
          <mxGeometry y="52" width="170" height="26" as="geometry" />
        </mxCell>
        <mxCell id="eAUDB-SRGVo6K7p-f1jW-18" value="&lt;li&gt;&lt;span style=&quot;background-color: transparent;&quot;&gt;&lt;font style=&quot;font-size: 10px; color: light-dark(rgb(255, 51, 51), rgb(255, 255, 255));&quot;&gt;book_id (FK &amp;gt; Book.id&lt;/font&gt;&lt;/span&gt;&lt;/li&gt;" style="text;strokeColor=none;fillColor=none;align=left;verticalAlign=top;spacingLeft=4;spacingRight=4;overflow=hidden;rotatable=0;points=[[0,0.5],[1,0.5]];portConstraint=eastwest;whiteSpace=wrap;html=1;labelBackgroundColor=none;" parent="eAUDB-SRGVo6K7p-f1jW-15" vertex="1">
          <mxGeometry y="78" width="170" height="26" as="geometry" />
        </mxCell>
        <mxCell id="eAUDB-SRGVo6K7p-f1jW-24" value="&lt;li&gt;&lt;span style=&quot;background-color: transparent; color: light-dark(rgb(0, 0, 0), rgb(255, 255, 255));&quot;&gt;check_out_date&lt;/span&gt;&lt;/li&gt;" style="text;strokeColor=none;fillColor=none;align=left;verticalAlign=top;spacingLeft=4;spacingRight=4;overflow=hidden;rotatable=0;points=[[0,0.5],[1,0.5]];portConstraint=eastwest;whiteSpace=wrap;html=1;labelBackgroundColor=none;" parent="eAUDB-SRGVo6K7p-f1jW-15" vertex="1">
          <mxGeometry y="104" width="170" height="26" as="geometry" />
        </mxCell>
        <mxCell id="eAUDB-SRGVo6K7p-f1jW-23" value="&lt;li&gt;&lt;span style=&quot;background-color: transparent; color: light-dark(rgb(0, 0, 0), rgb(255, 255, 255));&quot;&gt;Retuned_date&lt;/span&gt;&lt;/li&gt;" style="text;strokeColor=none;fillColor=none;align=left;verticalAlign=top;spacingLeft=4;spacingRight=4;overflow=hidden;rotatable=0;points=[[0,0.5],[1,0.5]];portConstraint=eastwest;whiteSpace=wrap;html=1;labelBackgroundColor=none;" parent="eAUDB-SRGVo6K7p-f1jW-15" vertex="1">
          <mxGeometry y="130" width="170" height="26" as="geometry" />
        </mxCell>
        <mxCell id="eAUDB-SRGVo6K7p-f1jW-20" value="&lt;li&gt;&lt;span style=&quot;background-color: transparent; color: light-dark(rgb(0, 0, 0), rgb(255, 255, 255));&quot;&gt;Overdue_date&lt;/span&gt;&lt;/li&gt;" style="text;strokeColor=none;fillColor=none;align=left;verticalAlign=top;spacingLeft=4;spacingRight=4;overflow=hidden;rotatable=0;points=[[0,0.5],[1,0.5]];portConstraint=eastwest;whiteSpace=wrap;html=1;labelBackgroundColor=none;" parent="eAUDB-SRGVo6K7p-f1jW-15" vertex="1">
          <mxGeometry y="156" width="170" height="26" as="geometry" />
        </mxCell>
        <mxCell id="eAUDB-SRGVo6K7p-f1jW-26" value="" style="endArrow=classic;html=1;rounded=0;exitX=1.003;exitY=0.143;exitDx=0;exitDy=0;exitPerimeter=0;entryX=-0.003;entryY=0.137;entryDx=0;entryDy=0;entryPerimeter=0;labelBackgroundColor=none;fontColor=default;" parent="1" source="eAUDB-SRGVo6K7p-f1jW-1" target="eAUDB-SRGVo6K7p-f1jW-7" edge="1">
          <mxGeometry width="50" height="50" relative="1" as="geometry">
            <mxPoint x="290" y="160" as="sourcePoint" />
            <mxPoint x="340" y="110" as="targetPoint" />
          </mxGeometry>
        </mxCell>
        <mxCell id="eAUDB-SRGVo6K7p-f1jW-29" value="1 ...*" style="edgeLabel;html=1;align=center;verticalAlign=middle;resizable=0;points=[];labelBackgroundColor=none;" parent="eAUDB-SRGVo6K7p-f1jW-26" vertex="1" connectable="0">
          <mxGeometry x="-0.1051" y="1" relative="1" as="geometry">
            <mxPoint as="offset" />
          </mxGeometry>
        </mxCell>
        <mxCell id="eAUDB-SRGVo6K7p-f1jW-27" value="" style="endArrow=classic;html=1;rounded=0;exitX=0.574;exitY=1.023;exitDx=0;exitDy=0;exitPerimeter=0;entryX=1;entryY=0;entryDx=0;entryDy=0;labelBackgroundColor=none;fontColor=default;" parent="1" source="eAUDB-SRGVo6K7p-f1jW-11" target="eAUDB-SRGVo6K7p-f1jW-15" edge="1">
          <mxGeometry width="50" height="50" relative="1" as="geometry">
            <mxPoint x="310" y="84" as="sourcePoint" />
            <mxPoint x="570" y="60" as="targetPoint" />
            <Array as="points">
              <mxPoint x="550" y="300" />
            </Array>
          </mxGeometry>
        </mxCell>
        <mxCell id="eAUDB-SRGVo6K7p-f1jW-28" value="" style="endArrow=classic;html=1;rounded=0;entryX=-0.023;entryY=0.177;entryDx=0;entryDy=0;entryPerimeter=0;exitX=0.346;exitY=1.023;exitDx=0;exitDy=0;exitPerimeter=0;labelBackgroundColor=none;fontColor=default;" parent="1" source="eAUDB-SRGVo6K7p-f1jW-4" target="eAUDB-SRGVo6K7p-f1jW-16" edge="1">
          <mxGeometry width="50" height="50" relative="1" as="geometry">
            <mxPoint x="110" y="200" as="sourcePoint" />
            <mxPoint x="660" y="250" as="targetPoint" />
            <Array as="points">
              <mxPoint x="120" y="330" />
            </Array>
          </mxGeometry>
        </mxCell>
        <mxCell id="eAUDB-SRGVo6K7p-f1jW-30" value="1 ...*" style="edgeLabel;html=1;align=center;verticalAlign=middle;resizable=0;points=[];labelBackgroundColor=none;" parent="1" vertex="1" connectable="0">
          <mxGeometry x="550" y="240" as="geometry" />
        </mxCell>
        <mxCell id="eAUDB-SRGVo6K7p-f1jW-31" value="1 ...*" style="edgeLabel;html=1;align=center;verticalAlign=middle;resizable=0;points=[];labelBackgroundColor=none;" parent="1" vertex="1" connectable="0">
          <mxGeometry x="120" y="240" as="geometry" />
        </mxCell>
      </root>
    </mxGraphModel>
  </diagram>
</mxfile>
